<svg width="499" height="169" viewBox="0 0 499 169" fill="none" xmlns="http://www.w3.org/2000/svg">
<path d="M62 59.2L92.5783 69.4626C107.598 74.5034 115.108 77.0237 121.831 74.4334C128.554 71.843 132.431 64.9354 140.186 51.1201L142.22 47.4967C145.71 41.2788 147.455 38.1699 150.095 35.8842C152.735 33.5985 156.062 32.3163 162.715 29.7519L177.291 24.134C183.463 21.7548 186.55 20.5652 189.795 20.4164C193.041 20.2677 196.223 21.1699 202.588 22.9745L220.768 28.1293C224.347 29.144 227.277 31.7185 228.745 35.137V35.137C232.862 44.7285 246.284 45.1998 251.064 35.9206L252.338 33.4473C253.585 31.0267 255.527 29.034 257.914 27.7252L264.577 24.0727C268.708 21.8081 270.774 20.6759 273.019 20.0556C273.261 19.9887 273.505 19.9263 273.749 19.8686C276.016 19.3333 278.371 19.3333 283.082 19.3333H288.061C297.023 19.3333 301.504 19.3333 305.421 21.0972C305.993 21.355 306.553 21.6395 307.099 21.9499C310.832 24.0742 313.474 27.6939 318.756 34.9333V34.9333L323.471 41.3942C328.32 48.0396 330.744 51.3623 333.954 53.3966C336.423 54.9608 339.204 55.9651 342.102 56.339C345.871 56.8251 349.859 55.8183 357.835 53.8047V53.8047C358.865 53.5448 359.38 53.4149 359.886 53.258C360.279 53.1365 360.667 53.0029 361.051 52.8574C361.547 52.6697 362.033 52.4557 363.005 52.0276L367.039 50.2504C372.579 47.8101 375.349 46.5899 377.609 44.6443C379.868 42.6988 381.486 40.1406 384.722 35.0242L389.321 27.751C391.97 23.5632 393.294 21.4694 395.067 19.7747C396.839 18.0801 398.991 16.8516 403.294 14.3947L425 2" stroke="#67BD8C" stroke-width="3.5"/>
<path d="M61.6848 72.9507L4.49216 59.1977C2.20227 58.6471 0 60.3825 0 62.7377C0 74.427 0 80.2716 2.27173 84.6218C4.41233 88.721 7.90729 91.9516 12.1617 93.764C16.6768 95.6874 22.5034 95.2288 34.1566 94.3115L472.318 59.824C475.362 59.5845 476.883 59.4647 478.172 59.1898C486.448 57.4246 492.717 50.6427 493.827 42.2544C494 40.9478 494 39.4215 494 36.3688V9.53279C494 5.90725 490.357 3.41367 486.978 4.72541L479.955 7.45082L465.91 12.9016L462.452 14.2436C457.741 16.0721 455.385 16.9864 453.348 18.4372C451.312 19.888 449.678 21.8157 446.41 25.6712L438.06 35.5233L438.06 35.5235C434.433 39.8021 432.62 41.9414 430.324 43.4876C428.028 45.0339 425.364 45.9095 420.035 47.6608L406.832 52.0005L395.394 54.1551C385.096 56.0948 379.947 57.0646 375.164 55.5578C370.381 54.0509 366.718 50.3051 359.391 42.8135L350.429 33.6494L346.814 29.9527C341.01 24.018 338.108 21.0506 334.388 19.4852C330.668 17.9199 326.517 17.9199 318.216 17.9199H296.763C292.843 17.9199 290.884 17.9199 288.973 18.2955C287.062 18.6712 285.248 19.4132 281.62 20.8971L268.545 26.2451C265.097 27.6553 262.134 30.0386 260.018 33.1041L257.94 36.1145C250.892 46.3249 235.606 45.6966 229.419 34.9422C227.027 30.7829 222.977 27.8387 218.282 26.8455L185.847 19.9834C180.995 18.9568 178.569 18.4435 176.115 18.5313C173.662 18.6191 171.279 19.3045 166.512 20.6753L134.263 29.95C127.888 31.7833 124.701 32.7 122.018 34.5472C119.335 36.3943 117.341 39.0447 113.353 44.3455L103.002 58.1056C95.3443 68.2854 91.5154 73.3753 85.8892 75.3967C80.2631 77.4182 74.0704 75.929 61.6848 72.9507Z" fill="url(#paint0_linear_445_4115)"/>
<path d="M74 163L83.9445 131.806C85.7771 126.058 90.1069 121.444 95.7275 119.25L108.673 114.197L127.481 108.524C128.634 108.177 129.831 108 131.035 108H139.129C141.458 108 143.345 109.888 143.345 112.216V112.216C143.345 113.471 143.904 114.661 144.87 115.462L150.71 120.305C152.632 121.9 154.239 123.84 155.447 126.026L159.076 132.594C159.708 133.738 160.04 135.024 160.04 136.331V136.331C160.04 138.515 160.963 140.596 162.582 142.062L166.862 145.934C167.424 146.442 167.745 147.165 167.745 147.923V147.923C167.745 149.405 168.946 150.606 170.427 150.606H174.369C175.085 150.606 175.796 150.49 176.474 150.262L180.811 148.809C184.512 147.568 187.007 144.101 187.007 140.197V140.197C187.007 136.63 189.096 133.393 192.346 131.923L194.707 130.855C196.403 130.087 198.244 129.69 200.106 129.69H203.319C205.218 129.69 207.049 128.985 208.458 127.711V127.711C210.306 126.038 212.854 125.37 215.285 125.92L231.953 129.69L264.058 139.761L266.835 141.017C273.932 144.228 282.302 141.359 285.936 134.469V134.469C287.564 131.383 290.233 128.976 293.469 127.674L300.014 125.042L307.845 121.607C311.925 119.817 316.485 119.441 320.803 120.537L334.32 123.971C337.101 124.677 339.696 125.973 341.932 127.771L345.872 130.94C348.543 133.088 350.097 136.332 350.097 139.761V139.761V139.761C350.097 143.611 353.219 146.732 357.069 146.732H360.38C363.609 146.732 366.65 145.216 368.593 142.638L375.832 133.03C377.492 130.827 379.59 128.992 381.993 127.638L391.458 122.309C395.44 120.068 400.069 119.257 404.576 120.012L417.152 122.119C419.507 122.514 421.75 123.413 423.726 124.754V124.754C428.276 127.841 431 132.983 431 138.481V139.761" stroke="#1A35DD" stroke-opacity="0.28" stroke-width="4"/>
<path d="M31.8557 133.223L28.5429 141.777C23.4669 154.884 33.1377 169 47.1931 169H479C490.046 169 499 160.046 499 149V143.225C499 136.329 495.27 129.972 489.249 126.609L488.447 126.161C486.274 124.947 483.893 124.149 481.426 123.809L459.83 120.83C456.033 120.307 452.165 120.885 448.688 122.497L431.698 130.371C429.297 131.484 427.141 133.061 425.355 135.013L415.045 146.276C412.314 149.259 408.456 150.958 404.412 150.958H397.729C393.458 150.958 389.996 147.496 389.996 143.225C389.996 139.47 388.113 135.964 384.982 133.891L377.62 129.017C375.509 127.619 373.151 126.635 370.673 126.117L347.102 121.189C343.473 120.43 339.703 120.695 336.216 121.955L322.518 126.901L313.452 129.903C309.243 131.296 305.641 134.094 303.249 137.827C298.338 145.49 288.749 148.691 280.22 145.515L274.072 143.225L230.817 132.056L207.958 127.8C204.882 127.227 201.706 127.964 199.197 129.833C197.259 131.277 194.907 132.056 192.491 132.056H187.143C185.131 132.056 183.135 132.416 181.25 133.118L176.405 134.923C172.71 136.299 170.259 139.826 170.259 143.769C170.259 148.016 167.423 151.74 163.329 152.869L155.881 154.924C155.088 155.143 154.271 155.254 153.449 155.254H147.166C145.586 155.254 144.306 153.973 144.306 152.394C144.306 151.49 143.879 150.64 143.154 150.1L136.927 145.462C135.038 144.054 133.924 141.837 133.924 139.482C133.924 138.002 133.484 136.555 132.659 135.326L127.42 127.522C126.002 125.409 124.194 123.587 122.092 122.152L113.393 116.213C112.166 115.375 111.432 113.984 111.432 112.498C111.432 110.014 109.418 108 106.934 108H94.473C93.0957 108 91.7234 108.168 90.3866 108.5L64.7158 114.873L44.3879 121.405C38.6411 123.251 34.0356 127.594 31.8557 133.223Z" fill="url(#paint1_linear_445_4115)"/>
<path d="M279 18.5C279 18.9632 278.671 19.5674 277.739 20.1111C276.831 20.6405 275.512 21 274 21C272.488 21 271.169 20.6405 270.261 20.1111C269.329 19.5674 269 18.9632 269 18.5C269 18.0368 269.329 17.4326 270.261 16.8889C271.169 16.3595 272.488 16 274 16C275.512 16 276.831 16.3595 277.739 16.8889C278.671 17.4326 279 18.0368 279 18.5Z" fill="#FDFDFD" stroke="black" stroke-width="2"/>
<path d="M279 70.5C279 70.9632 278.671 71.5674 277.739 72.1111C276.831 72.6405 275.512 73 274 73C272.488 73 271.169 72.6405 270.261 72.1111C269.329 71.5674 269 70.9632 269 70.5C269 70.0368 269.329 69.4326 270.261 68.8889C271.169 68.3595 272.488 68 274 68C275.512 68 276.831 68.3595 277.739 68.8889C278.671 69.4326 279 70.0368 279 70.5Z" fill="white" stroke="black" stroke-width="2"/>
<path d="M279 141.5C279 141.963 278.671 142.567 277.739 143.111C276.831 143.64 275.512 144 274 144C272.488 144 271.169 143.64 270.261 143.111C269.329 142.567 269 141.963 269 141.5C269 141.037 269.329 140.433 270.261 139.889C271.169 139.36 272.488 139 274 139C275.512 139 276.831 139.36 277.739 139.889C278.671 140.433 279 141.037 279 141.5Z" fill="white" stroke="black" stroke-width="2"/>
<path d="M71 103L114.317 79.2539C117.264 77.6385 120.571 76.7917 123.931 76.7917H172.377C176.209 76.7917 179.959 77.8981 183.177 79.9779V79.9779C189.635 84.1516 197.92 84.2308 204.457 80.1813L222.509 68.9982C225.672 67.0383 229.32 66 233.041 66H259.008C264.359 66 268.697 70.3379 268.697 75.689V75.689C268.697 79.6202 271.072 83.1617 274.709 84.6534L285.724 89.1708C288.132 90.1586 290.71 90.6667 293.313 90.6667H308.022C312.67 90.6667 317.174 89.0472 320.758 86.0865L332.011 76.7917L342.367 69.5845C345.72 67.2509 349.707 66 353.792 66H354.944C357.715 66 360.456 66.5758 362.993 67.6908L379.85 75.1009C382.387 76.2159 385.127 76.7917 387.898 76.7917H393.093C396.259 76.7917 399.38 76.0401 402.199 74.5987L406.955 72.1667L416 66" stroke="#D9BA83" stroke-width="3.5"/>
<path d="M157.003 78.7917H85.3498C82.7665 78.7917 80.2077 79.2921 77.8148 80.2654L49.2191 91.8958L33.1096 98.4479C29.6506 99.8547 30.6569 105 34.391 105H467.913C475.693 105 482 98.6929 482 90.9128V81.6619C482 75.4007 475.396 71.3405 469.809 74.1667L461.046 77.4912C458.779 78.351 456.376 78.7917 453.952 78.7917H441.64C439.534 78.7917 437.441 78.459 435.438 77.806L408.393 68.9857C406.391 68.3327 404.298 68 402.192 68H394.556C391.363 68 388.216 68.7644 385.379 70.2294L368.798 78.7917L350.967 89.7192C347.822 91.6466 344.205 92.6667 340.516 92.6667H314.301C312.329 92.6667 310.367 92.3748 308.479 91.8004L290.052 86.1931C286.137 85.0018 283.461 81.3904 283.461 77.2979C283.461 72.1628 279.298 68 274.163 68H232.107C229.223 68 226.374 68.6235 223.754 69.8276L190.982 84.8908C185.577 87.3751 179.346 87.3245 173.982 84.7525L165.651 80.7576C162.952 79.4635 159.997 78.7917 157.003 78.7917Z" fill="url(#paint2_linear_445_4115)"/>
<defs>
<linearGradient id="paint0_linear_445_4115" x1="248.733" y1="0.442625" x2="248.733" y2="79.0902" gradientUnits="userSpaceOnUse">
<stop offset="0.0001" stop-color="#67BD8C" stop-opacity="0.0213964"/>
<stop offset="0.0002" stop-color="#67BD8C" stop-opacity="0.0416667"/>
<stop offset="0.0003" stop-color="#67BD8C" stop-opacity="0.25"/>
<stop offset="0.0004" stop-color="#BEF5D6" stop-opacity="0.25"/>
<stop offset="1" stop-color="#80D0A3" stop-opacity="0.03"/>
</linearGradient>
<linearGradient id="paint1_linear_445_4115" x1="258.5" y1="108" x2="258.5" y2="169" gradientUnits="userSpaceOnUse">
<stop stop-color="#1A35DD" stop-opacity="0.28"/>
<stop offset="1" stop-color="#D9D9D9" stop-opacity="0"/>
</linearGradient>
<linearGradient id="paint2_linear_445_4115" x1="249.5" y1="68" x2="249.5" y2="105" gradientUnits="userSpaceOnUse">
<stop stop-color="#D9BA83" stop-opacity="0.24"/>
<stop offset="1" stop-color="#D9BA83" stop-opacity="0"/>
</linearGradient>
</defs>
</svg>
